<mxfile host="app.diagrams.net" modified="2024-04-13T11:48:35.725Z" agent="Mozilla/5.0 (Windows NT 10.0; Win64; x64) AppleWebKit/537.36 (KHTML, like Gecko) Chrome/123.0.0.0 Safari/537.36 Edg/123.0.0.0" version="24.2.5" etag="TLaH6Q0TtS_rxvoNrjVI" type="github">
  <diagram name="Page-1" id="vzyQNJ5mFGqe8O9gfs7n">
    <mxGraphModel>
      <root>
        <mxCell id="0" />
        <mxCell id="1" parent="0" />
      </root>
    </mxGraphModel>
  </diagram>
</mxfile>
